<svg xmlns="http://www.w3.org/2000/svg" width="1280" height="360" viewBox="0 0 1280 360" font-family="-apple-system, BlinkMacSystemFont, 'Segoe UI', Helvetica, Arial, sans-serif">
  <rect width="1280" height="360" rx="16" fill="#F7F6F3"/>
  <g stroke="#EDEBE5" stroke-width="1">
    <line x1="760" y1="0" x2="760" y2="360"/>
    <line x1="800" y1="0" x2="800" y2="360"/>
    <line x1="840" y1="0" x2="840" y2="360"/>
    <line x1="880" y1="0" x2="880" y2="360"/>
    <line x1="920" y1="0" x2="920" y2="360"/>
    <line x1="960" y1="0" x2="960" y2="360"/>
    <line x1="1000" y1="0" x2="1000" y2="360"/>
    <line x1="1040" y1="0" x2="1040" y2="360"/>
    <line x1="1080" y1="0" x2="1080" y2="360"/>
    <line x1="1120" y1="0" x2="1120" y2="360"/>
    <line x1="1160" y1="0" x2="1160" y2="360"/>
    <line x1="1200" y1="0" x2="1200" y2="360"/>
    <line x1="1240" y1="0" x2="1240" y2="360"/>
    <line x1="760" y1="20" x2="1280" y2="20"/>
    <line x1="760" y1="60" x2="1280" y2="60"/>
    <line x1="760" y1="100" x2="1280" y2="100"/>
    <line x1="760" y1="140" x2="1280" y2="140"/>
    <line x1="760" y1="180" x2="1280" y2="180"/>
    <line x1="760" y1="220" x2="1280" y2="220"/>
    <line x1="760" y1="260" x2="1280" y2="260"/>
    <line x1="760" y1="300" x2="1280" y2="300"/>
    <line x1="760" y1="340" x2="1280" y2="340"/>
  </g>
  <text x="72" y="150" font-size="52" font-weight="700" fill="#1B1B1F" letter-spacing="-1">chudarin-design-skills</text>
  <text x="72" y="200" font-size="24" fill="#6B6B75">A design agent for Figma</text>
  <g font-size="15" font-weight="600">
    <rect x="72" y="238" width="118" height="34" rx="17" fill="#ECEAE4"/>
    <text x="131" y="260" text-anchor="middle" fill="#1B1B1F">Claude Code</text>
    <rect x="202" y="238" width="80" height="34" rx="17" fill="#ECEAE4"/>
    <text x="242" y="260" text-anchor="middle" fill="#1B1B1F">Codex</text>
    <rect x="294" y="238" width="106" height="34" rx="17" fill="#ECEAE4"/>
    <text x="347" y="260" text-anchor="middle" fill="#1B1B1F">Figma MCP</text>
  </g>

  <!-- frame being designed -->
  <text x="840" y="62" font-size="13" fill="#7B61FF" font-weight="600">Settings · 390</text>
  <rect x="840" y="72" width="220" height="252" rx="18" fill="#FFFFFF" stroke="#7B61FF" stroke-width="2"/>
  <rect x="862" y="96" width="120" height="14" rx="7" fill="#1B1B1F" opacity="0.85"/>
  <rect x="862" y="130" width="176" height="44" rx="10" fill="#F2F1EC"/>
  <circle cx="884" cy="152" r="10" fill="#7B61FF" opacity="0.8"/>
  <rect x="904" y="146" width="80" height="12" rx="6" fill="#6B6B75" opacity="0.6"/>
  <rect x="862" y="184" width="176" height="44" rx="10" fill="#F2F1EC"/>
  <circle cx="884" cy="206" r="10" fill="#14AE5C" opacity="0.8"/>
  <rect x="904" y="200" width="100" height="12" rx="6" fill="#6B6B75" opacity="0.6"/>
  <rect x="862" y="238" width="176" height="44" rx="10" fill="#F2F1EC"/>
  <circle cx="884" cy="260" r="10" fill="#F24E1E" opacity="0.8"/>
  <rect x="904" y="254" width="64" height="12" rx="6" fill="#6B6B75" opacity="0.6"/>
  <g fill="#7B61FF">
    <rect x="835" y="67" width="10" height="10"/><rect x="1055" y="67" width="10" height="10"/>
    <rect x="835" y="319" width="10" height="10"/><rect x="1055" y="319" width="10" height="10"/>
  </g>

  <!-- bound variables -->
  <g font-size="14" font-weight="600">
    <line x1="1038" y1="152" x2="1100" y2="118" stroke="#6B6B75" stroke-dasharray="4 4"/>
    <rect x="1100" y="100" width="136" height="36" rx="8" fill="#FFFFFF" stroke="#DAD8D1"/>
    <rect x="1112" y="112" width="12" height="12" rx="3" fill="#7B61FF"/>
    <text x="1132" y="123" fill="#1B1B1F">radius/md</text>
    <line x1="1038" y1="206" x2="1100" y2="178" stroke="#6B6B75" stroke-dasharray="4 4"/>
    <rect x="1100" y="160" width="136" height="36" rx="8" fill="#FFFFFF" stroke="#DAD8D1"/>
    <rect x="1112" y="172" width="12" height="12" rx="3" fill="#14AE5C"/>
    <text x="1132" y="183" fill="#1B1B1F">space/16</text>
    <line x1="1038" y1="260" x2="1100" y2="238" stroke="#6B6B75" stroke-dasharray="4 4"/>
    <rect x="1100" y="220" width="136" height="36" rx="8" fill="#FFFFFF" stroke="#DAD8D1"/>
    <rect x="1112" y="232" width="12" height="12" rx="3" fill="#F24E1E"/>
    <text x="1132" y="243" fill="#1B1B1F">text/primary</text>
  </g>
  <g transform="translate(1100 272)">
    <circle cx="12" cy="12" r="12" fill="#14AE5C"/>
    <path d="M6.5 12.5l3.5 3.5 7-7.5" fill="none" stroke="#F7F6F3" stroke-width="2.5" stroke-linecap="round" stroke-linejoin="round"/>
    <text x="32" y="17" font-size="14" fill="#6B6B75">bindings checked</text>
  </g>
</svg>
